<?xml version="1.0" encoding="UTF-8"?>
<svg xmlns="http://www.w3.org/2000/svg" viewBox="0 0 520 282" width="520" height="282">
  <rect width="100%" height="100%" fill="#f8fafc"/>
  <text x="260.0" y="28" text-anchor="middle" font-family="Noto Sans TC", "Microsoft JhengHei", sans-serif font-size="15" font-weight="700" fill="#0f172a">案場驗收表</text>
  <rect x="16" y="44" width="488" height="202" rx="10" fill="#fff" stroke="#cbd5e1" stroke-width="1.5"/>
  <rect x="16" y="44" width="488" height="28" rx="10" fill="#f1f5f9"/>
  <rect x="28" y="52" width="10" height="10" rx="2" fill="#f87171"/>
  <rect x="44" y="52" width="10" height="10" rx="2" fill="#fbbf24"/>
  <rect x="60" y="52" width="10" height="10" rx="2" fill="#4ade80"/>
  <text x="36" y="108" font-family="Noto Sans TC", "Microsoft JhengHei", sans-serif font-size="10" font-weight="600" fill="#64748b">驗收項目</text>
  <rect x="36" y="114" width="448" height="22" rx="5" fill="#f8fafc" stroke="#e2e8f0"/>
  <text x="36" y="142" font-family="Noto Sans TC", "Microsoft JhengHei", sans-serif font-size="10" font-weight="600" fill="#64748b">實際數量</text>
  <rect x="36" y="148" width="448" height="22" rx="5" fill="#f8fafc" stroke="#e2e8f0"/>
  <text x="36" y="176" font-family="Noto Sans TC", "Microsoft JhengHei", sans-serif font-size="10" font-weight="600" fill="#64748b">照片</text>
  <rect x="36" y="182" width="448" height="22" rx="5" fill="#f8fafc" stroke="#e2e8f0"/>
  <rect x="36" y="218" width="72" height="28" rx="6" fill="#2563eb"/>
  <text x="72.0" y="237" text-anchor="middle" font-family="Noto Sans TC", "Microsoft JhengHei", sans-serif font-size="11" font-weight="600" fill="#fff">送出驗收</text>
  <text x="260.0" y="268" text-anchor="middle" font-family="Noto Sans TC", "Microsoft JhengHei", sans-serif font-size="10" fill="#94a3b8">示意圖 · 實際畫面以系統為準</text>
</svg>
