<?xml version="1.0" encoding="UTF-8"?>
<svg xmlns="http://www.w3.org/2000/svg" viewBox="0 0 520 350" width="520" height="350">
  <rect width="100%" height="100%" fill="#f8fafc"/>
  <text x="260.0" y="28" text-anchor="middle" font-family="Noto Sans TC", "Microsoft JhengHei", sans-serif font-size="15" font-weight="700" fill="#0f172a">收支登錄 — 主畫面</text>
  <rect x="16" y="44" width="488" height="270" rx="10" fill="#fff" stroke="#cbd5e1" stroke-width="1.5"/>
  <rect x="16" y="44" width="488" height="28" rx="10" fill="#f1f5f9"/>
  <rect x="28" y="52" width="10" height="10" rx="2" fill="#f87171"/>
  <rect x="44" y="52" width="10" height="10" rx="2" fill="#fbbf24"/>
  <rect x="60" y="52" width="10" height="10" rx="2" fill="#4ade80"/>
  <rect x="400" y="78" width="88" height="22" rx="6" fill="#eff6ff" stroke="#93c5fd"/>
  <text x="444" y="93" text-anchor="middle" font-family="Noto Sans TC", "Microsoft JhengHei", sans-serif font-size="10" font-weight="600" fill="#1d4ed8">收支登錄</text>
  <text x="36" y="108" font-family="Noto Sans TC", "Microsoft JhengHei", sans-serif font-size="10" font-weight="600" fill="#64748b">類型：收入 / 支出</text>
  <rect x="36" y="114" width="448" height="22" rx="5" fill="#f8fafc" stroke="#e2e8f0"/>
  <text x="36" y="142" font-family="Noto Sans TC", "Microsoft JhengHei", sans-serif font-size="10" font-weight="600" fill="#64748b">店別</text>
  <rect x="36" y="148" width="448" height="22" rx="5" fill="#f8fafc" stroke="#e2e8f0"/>
  <text x="36" y="176" font-family="Noto Sans TC", "Microsoft JhengHei", sans-serif font-size="10" font-weight="600" fill="#64748b">快選案場</text>
  <rect x="36" y="182" width="448" height="22" rx="5" fill="#f8fafc" stroke="#e2e8f0"/>
  <text x="36" y="210" font-family="Noto Sans TC", "Microsoft JhengHei", sans-serif font-size="10" font-weight="600" fill="#64748b">收款日期 · 客戶名 · 訂編</text>
  <rect x="36" y="216" width="448" height="22" rx="5" fill="#f8fafc" stroke="#e2e8f0"/>
  <text x="36" y="244" font-family="Noto Sans TC", "Microsoft JhengHei", sans-serif font-size="10" font-weight="600" fill="#64748b">款項類別 · 金額 · 付款方式</text>
  <rect x="36" y="250" width="448" height="22" rx="5" fill="#f8fafc" stroke="#e2e8f0"/>
  <rect x="36" y="286" width="84" height="28" rx="6" fill="#2563eb"/>
  <text x="78.0" y="305" text-anchor="middle" font-family="Noto Sans TC", "Microsoft JhengHei", sans-serif font-size="11" font-weight="600" fill="#fff">送出這一筆</text>
  <text x="260.0" y="336" text-anchor="middle" font-family="Noto Sans TC", "Microsoft JhengHei", sans-serif font-size="10" fill="#94a3b8">示意圖 · 實際畫面以系統為準</text>
</svg>
